<svg width="79" height="46" viewBox="0 0 79 46" fill="none" xmlns="http://www.w3.org/2000/svg">
<g clip-path="url(#clip0_127_452)">
<path d="M63.1178 0L54.9895 1.72924V34.5848H63.1178V0Z" fill="#141414" fill-opacity="0.5"/>
<path d="M39.9746 9.82156C37.4939 9.82156 35.069 10.558 33.0064 11.9378C30.9438 13.3175 29.3362 15.2786 28.3869 17.5731C27.4376 19.8675 27.1892 22.3923 27.6731 24.828C28.1571 27.2638 29.3516 29.5012 31.1057 31.2573C32.8598 33.0134 35.0947 34.2093 37.5277 34.6938C39.9607 35.1783 42.4825 34.9296 44.7744 33.9793C47.0662 33.0289 49.0251 31.4194 50.4032 29.3545C51.7814 27.2895 52.517 24.8618 52.517 22.3783C52.5167 19.0482 51.1952 15.8545 48.8431 13.4997C46.491 11.1449 43.3009 9.82186 39.9746 9.82156V9.82156ZM39.9746 26.4471C39.1708 26.4471 38.385 26.2085 37.7166 25.7614C37.0483 25.3143 36.5274 24.6789 36.2198 23.9354C35.9122 23.1919 35.8317 22.3738 35.9885 21.5845C36.1453 20.7953 36.5324 20.0703 37.1008 19.5012C37.6692 18.9322 38.3933 18.5447 39.1817 18.3877C39.9701 18.2307 40.7872 18.3113 41.5299 18.6192C42.2725 18.9272 42.9072 19.4487 43.3538 20.1178C43.8004 20.7869 44.0387 21.5736 44.0387 22.3783C44.0387 23.4574 43.6105 24.4923 42.8484 25.2554C42.0862 26.0184 41.0525 26.4471 39.9746 26.4471Z" fill="#141414" fill-opacity="0.5"/>
<path d="M39.9746 37.8624C40.7784 37.8624 41.5641 38.101 42.2325 38.5481C42.9008 38.9952 43.4217 39.6307 43.7293 40.3741C44.037 41.1176 44.1174 41.9357 43.9606 42.725C43.8038 43.5142 43.4167 44.2392 42.8484 44.8083C42.28 45.3773 41.5558 45.7648 40.7674 45.9218C39.9791 46.0788 39.1619 45.9982 38.4193 45.6903C37.6766 45.3823 37.0419 44.8608 36.5953 44.1917C36.1488 43.5226 35.9104 42.7359 35.9104 41.9312C35.9104 40.8521 36.3386 39.8172 37.1008 39.0541C37.8629 38.2911 38.8967 37.8624 39.9746 37.8624" fill="#141414" fill-opacity="0.5"/>
<path d="M21.8891 16.2978C22.8874 14.6795 23.436 12.8238 23.4784 10.9222C23.5207 9.02072 23.0553 7.14234 22.1301 5.4811C21.2049 3.81987 19.8536 2.43601 18.2156 1.47245C16.5776 0.5089 14.7123 0.000581937 12.8125 0L0.168457 0V34.5848H14.393C16.5091 34.5839 18.5773 33.9533 20.3346 32.7731C22.092 31.5929 23.4592 29.9163 24.2626 27.9563C25.066 25.9964 25.2693 23.8416 24.8467 21.7657C24.4241 19.6898 23.3946 17.7866 21.8891 16.2978V16.2978ZM8.30806 8.13759H12.8238C13.4975 8.13759 14.1435 8.40552 14.6199 8.88242C15.0963 9.35932 15.3639 10.0061 15.3639 10.6806C15.3639 11.355 15.0963 12.0019 14.6199 12.4788C14.1435 12.9557 13.4975 13.2236 12.8238 13.2236H8.30806V8.13759ZM14.4043 26.4472H8.30806V21.3612H14.4043C15.078 21.3612 15.7241 21.6291 16.2004 22.106C16.6768 22.5829 16.9444 23.2297 16.9444 23.9042C16.9444 24.5786 16.6768 25.2254 16.2004 25.7024C15.7241 26.1793 15.078 26.4472 14.4043 26.4472" fill="#141414" fill-opacity="0.5"/>
<path d="M78.4713 18.4226V10.285H74.4071V4.06876L66.2788 5.79799V26.854C66.2788 31.8157 69.3608 34.6751 73.8991 34.9125C73.9443 34.9125 74.0007 34.9238 74.0459 34.9238H74.1249C74.2265 34.9238 74.3168 34.9351 74.4184 34.9351H74.52C75.9045 34.9289 77.2659 34.5795 78.4826 33.9179V27.9277C77.8902 28.0888 77.2788 28.1686 76.665 28.1651C75.0393 28.1651 74.4184 26.741 74.4184 24.8083V18.4226H78.4713Z" fill="#141414" fill-opacity="0.5"/>
</g>
<defs>
<clipPath id="clip0_127_452">
<rect width="78.314" height="46" fill="white" transform="translate(0.168457)"/>
</clipPath>
</defs>
</svg>
