<svg width="224" height="52" viewBox="0 0 224 52" fill="none" xmlns="http://www.w3.org/2000/svg">
<g clip-path="url(#clip0_127_435)">
<path fill-rule="evenodd" clip-rule="evenodd" d="M74.5675 25.6505C73.3083 27.0634 72.6788 28.7555 72.6788 30.7281C72.6788 32.7007 73.3083 34.3943 74.5675 35.8058C75.8267 37.2187 77.3679 37.9238 79.1942 37.9238C81.0553 37.9238 82.6154 37.2187 83.8761 35.8058C85.1352 34.3943 85.7648 32.7007 85.7648 30.7281C85.7648 28.7555 85.1352 27.0649 83.8746 25.6505C82.6154 24.239 81.0553 23.5325 79.1927 23.5325C77.3679 23.5325 75.8267 24.239 74.5675 25.6505V25.6505ZM73.0524 20.0989C73.7751 19.0392 74.8787 18.1786 76.3632 17.5143C77.8478 16.8514 79.485 16.52 81.2748 16.52C85.0058 16.52 88.2148 17.8646 90.8989 20.5525C93.583 23.2417 94.9251 26.764 94.9251 31.1192C94.9251 35.4366 93.5627 38.9573 90.8393 41.6844C88.1174 44.41 84.8735 45.7736 81.1047 45.7736C79.389 45.7736 77.81 45.4523 76.3647 44.8083C74.9165 44.1644 73.794 43.2936 72.9943 42.1946V44.4042C72.9981 44.5625 72.9696 44.72 72.9105 44.8669C72.8514 45.0139 72.7629 45.1472 72.6505 45.2588C72.5381 45.3703 72.4041 45.4578 72.2567 45.5158C72.1093 45.5739 71.9516 45.6012 71.7933 45.5962L66.0834 45.5977C65.7024 45.5977 65.4 45.4843 65.1703 45.2575C65.0575 45.1468 64.9689 45.014 64.9098 44.8674C64.8508 44.7208 64.8226 44.5636 64.8271 44.4057V6.40827C64.8271 6.06666 64.9405 5.7832 65.1703 5.55497C65.3986 5.3282 65.7024 5.21481 66.0834 5.21481H71.8529C72.1568 5.21481 72.4316 5.3282 72.6802 5.55497C72.9274 5.7832 73.0524 6.06666 73.0524 6.40827V20.0975V20.0989ZM106.96 16.8078V31.5335C106.96 33.4087 107.43 34.8885 108.367 35.9744C109.305 37.0632 110.694 37.6054 112.535 37.6054C114.338 37.6054 115.733 37.0632 116.729 35.9744C117.724 34.8885 118.223 33.445 118.223 31.6454V16.8078C118.223 16.5069 118.345 16.2452 118.588 16.0199C118.806 15.8057 119.099 15.6847 119.405 15.6827H125.093C125.466 15.6827 125.767 15.8048 125.993 16.0475C126.216 16.2826 126.337 16.5958 126.332 16.9197V43.1105C126.336 43.2667 126.308 43.4222 126.25 43.5673C126.192 43.7123 126.104 43.8438 125.993 43.9536C125.767 44.1789 125.466 44.2923 125.091 44.2923H119.405C119.094 44.3016 118.792 44.1901 118.561 43.9812C118.449 43.8783 118.361 43.7521 118.302 43.6115C118.244 43.4709 118.217 43.3193 118.223 43.1672V40.8108C116.196 43.2486 113.453 44.4653 110.002 44.4653C106.585 44.4653 103.872 43.407 101.864 41.2876C99.8556 39.171 98.8509 36.3684 98.8509 32.8825V16.8078C98.8509 16.5069 98.9817 16.2452 99.2435 16.0199C99.4746 15.8075 99.7758 15.6875 100.09 15.6827H105.721C106.06 15.6827 106.349 15.7946 106.593 16.0199C106.708 16.1172 106.799 16.238 106.863 16.3739C106.926 16.5099 106.959 16.6579 106.96 16.8078V16.8078ZM142.698 15.6827C145.171 15.6827 147.354 16.0446 149.247 16.7642C151.138 17.4852 152.591 18.3327 153.603 19.3052C154.502 20.0466 154.539 20.9042 153.716 21.8767L151.636 24.3291C150.961 25.1475 150.062 25.2056 148.937 24.5064C146.727 22.9873 144.648 22.2271 142.699 22.2271C141.648 22.2271 140.795 22.4306 140.14 22.8405C139.486 23.249 139.157 23.7462 139.157 24.3291C139.157 25.4615 140.204 26.2392 142.305 26.668L146.632 27.5431C152.291 28.6741 155.121 31.5364 155.121 36.1343C155.121 38.937 153.977 41.2454 151.692 43.0567C149.407 44.8694 146.426 45.7736 142.755 45.7736C138.707 45.7736 135.24 44.7211 132.356 42.6191C130.032 40.9445 129.638 39.4836 131.175 38.2378L133.648 36.2506C134.547 35.5485 135.466 35.6081 136.402 36.425C138.502 38.3352 140.712 39.2888 143.035 39.2888C144.233 39.2888 145.162 39.0547 145.818 38.5881C146.472 38.1186 146.801 37.556 146.801 36.8917C146.801 36.2303 146.493 35.7142 145.875 35.3435C145.255 34.9743 144.252 34.653 142.867 34.3797L138.371 33.3869C136.084 32.9188 134.276 31.9666 132.946 30.5232C131.615 29.084 130.95 27.2321 130.95 24.9731C130.95 22.3245 132.018 20.1134 134.154 18.3414C136.292 16.5694 139.137 15.6827 142.698 15.6827V15.6827ZM179.666 44.6324V30.8328C179.666 28.8166 179.122 27.1986 178.033 25.9819C176.943 24.7652 175.442 24.1561 173.526 24.1561C171.611 24.1561 170.071 24.7754 168.906 26.011C167.743 27.2466 167.16 28.8543 167.16 30.8328V44.6324C167.166 44.7893 167.136 44.9453 167.072 45.0888C167.009 45.2323 166.913 45.3596 166.794 45.461C166.551 45.6691 166.241 45.7804 165.921 45.7736H160.232C160.075 45.7758 159.919 45.7462 159.773 45.6867C159.627 45.6273 159.495 45.539 159.385 45.4273C159.274 45.3156 159.187 45.1828 159.129 45.0367C159.071 44.8906 159.043 44.7344 159.047 44.5772V6.41263C159.047 6.07102 159.16 5.78756 159.386 5.55642C159.495 5.4444 159.627 5.35634 159.773 5.2978C159.919 5.23926 160.075 5.2115 160.232 5.21627H165.92C166.26 5.21627 166.549 5.32093 166.794 5.53026C166.913 5.63125 167.008 5.75802 167.072 5.90103C167.135 6.04404 167.165 6.19958 167.16 6.35594V20.2763C169.188 17.805 172.155 16.5694 176.062 16.5694C179.628 16.5694 182.484 17.7091 184.626 19.9913C186.766 22.2736 187.836 25.1446 187.836 28.6072V44.6324C187.842 44.7893 187.812 44.9454 187.748 45.089C187.685 45.2325 187.59 45.3597 187.47 45.461C187.227 45.6692 186.917 45.7805 186.597 45.7736H180.906C180.586 45.7802 180.275 45.6684 180.032 45.4596C179.913 45.3583 179.818 45.2313 179.754 45.088C179.691 44.9448 179.661 44.789 179.666 44.6324" fill="#141414" fill-opacity="0.5"/>
<mask id="mask0_127_435" style="mask-type:alpha" maskUnits="userSpaceOnUse" x="191" y="15" width="31" height="31">
<path d="M191.762 15.6826H221.86V45.7736H191.762V15.6826Z" fill="white"/>
</mask>
<g mask="url(#mask0_127_435)">
<path fill-rule="evenodd" clip-rule="evenodd" d="M201.482 25.6504C200.236 27.0649 199.614 28.7555 199.614 30.7281C199.614 32.7007 200.236 34.3943 201.482 35.8058C202.728 37.2187 204.287 37.9238 206.157 37.9238C208.025 37.9238 209.584 37.2187 210.831 35.8058C212.076 34.3943 212.7 32.7007 212.7 30.7281C212.7 28.7555 212.076 27.0649 210.831 25.6504C209.584 24.2389 208.025 23.5325 206.157 23.5325C204.287 23.5325 202.728 24.2389 201.482 25.6504V25.6504ZM195.902 41.5681C193.143 38.7611 191.762 35.1385 191.762 30.699C191.762 26.2581 193.142 22.6457 195.902 19.8605C198.661 17.0753 201.928 15.6826 205.697 15.6826C207.486 15.6826 209.095 16.0446 210.522 16.7642C211.951 17.4852 213.006 18.4097 213.691 19.5392V17.1479C213.691 16.7991 213.815 16.4967 214.064 16.2423C214.311 15.9908 214.587 15.8644 214.892 15.8644H220.66C221.003 15.8644 221.288 15.9908 221.517 16.2423C221.743 16.4892 221.866 16.8133 221.86 17.1479V44.3664C221.865 44.5281 221.837 44.6891 221.778 44.8398C221.719 44.9904 221.63 45.1276 221.517 45.243C221.406 45.3575 221.273 45.4479 221.125 45.5082C220.978 45.5685 220.82 45.5975 220.66 45.5933H214.892C214.587 45.5933 214.311 45.477 214.064 45.2444C213.943 45.133 213.847 44.997 213.783 44.8455C213.719 44.6941 213.688 44.5307 213.693 44.3664V41.917C213.006 43.0479 211.951 43.9725 210.523 44.6935C209.095 45.413 207.47 45.7736 205.64 45.7736C201.908 45.7736 198.661 44.3708 195.902 41.5666" fill="#141414" fill-opacity="0.5"/>
</g>
<mask id="mask1_127_435" style="mask-type:alpha" maskUnits="userSpaceOnUse" x="8" y="-1" width="43" height="30">
<path d="M8.55713 -0.0169678H50.4325V28.7656H8.55713V-0.0169678Z" fill="white"/>
</mask>
<g mask="url(#mask1_127_435)">
<path fill-rule="evenodd" clip-rule="evenodd" d="M46.9836 27.2423L44.5947 28.7657L39.7049 19.9681C38.3657 17.567 36.4089 15.5674 34.037 14.1765C31.6651 12.7856 28.9644 12.0539 26.2146 12.0573H8.55713L25.8482 1.04428C27.1413 0.221839 28.6749 -0.138626 30.1991 0.0216007C31.7233 0.181827 33.1484 0.853303 34.2422 1.92666L48.2152 15.6929C51.6204 19.0465 51.0214 24.6707 46.9836 27.2437" fill="#141414" fill-opacity="0.5"/>
</g>
<mask id="mask2_127_435" style="mask-type:alpha" maskUnits="userSpaceOnUse" x="0" y="15" width="47" height="37">
<path d="M0.705566 15.6826H46.5068V51.0068H0.705566V15.6826Z" fill="white"/>
</mask>
<g mask="url(#mask2_127_435)">
<path fill-rule="evenodd" clip-rule="evenodd" d="M39.5537 51.0068H18.9941C17.9782 51.0021 16.9852 50.7053 16.1335 50.1516C15.2819 49.5979 14.6077 48.8108 14.1915 47.8843L1.10108 19.2005L0.906242 18.7688C0.776782 18.4882 0.708411 18.1833 0.705653 17.8743C0.702896 17.5653 0.765816 17.2593 0.890248 16.9764C0.904788 16.9372 0.925144 16.9037 0.944046 16.8616C1.11924 16.5086 1.38927 16.2114 1.72388 16.0031C2.0585 15.7949 2.44449 15.684 2.83862 15.6826H25.2594C29.5284 15.6826 33.46 18.0463 35.5189 21.852L40.4712 30.9941L45.6329 40.5171C48.1847 45.2313 44.8405 51.0068 39.5552 51.0068" fill="#141414" fill-opacity="0.5"/>
</g>
</g>
<defs>
<clipPath id="clip0_127_435">
<rect width="222.463" height="50.8783" fill="white" transform="translate(0.705566 0.128418)"/>
</clipPath>
</defs>
</svg>
