<svg width="234" height="69" viewBox="0 0 234 69" fill="none" xmlns="http://www.w3.org/2000/svg">
<rect width="232.881" height="68.0014" transform="translate(0.824219)" fill="white"/>
<path d="M13.4697 34.5759C13.7795 34.357 13.84 34.2033 13.5303 33.9541C11.4856 32.3752 9.4083 30.7939 7.39387 29.1824C6.59043 28.5326 5.69151 27.9737 4.94629 27.2006H4.91602V41.0826H4.94629C5.19547 40.866 5.4726 40.6495 5.72179 40.4329C8.28348 38.5116 10.8661 36.5275 13.4697 34.5759Z" fill="#292525" fill-opacity="0.5"/>
<path d="M230.699 11.3646C230.699 10.8988 230.606 10.8057 230.14 10.8057H4.38973C3.92396 10.8057 3.83081 10.8988 3.83081 11.3646V21.8442V48.1831V57.5682C3.83081 58.034 3.92396 58.1272 4.38973 58.1272H230.11C230.576 58.1272 230.667 58.034 230.667 57.5682C230.699 42.1352 230.699 26.765 230.699 11.3646V11.3646ZM229.614 56.4225C229.614 56.9185 229.491 57.0419 228.994 57.0419H5.5355C4.97892 57.0419 4.91604 56.8556 4.91604 56.3899V41.1454H4.88576V27.2611H4.91604V12.543C4.91604 12.0469 5.03946 11.9212 5.5355 11.9212H228.994C229.491 11.9212 229.614 12.0143 229.614 12.543V56.4225" fill="white"/>
<path d="M159.363 14.8346C159.363 14.0288 159.363 14.0288 158.587 14.0288H8.91456C8.69751 14.0451 8.47954 14.0451 8.26249 14.0288C7.92249 13.9985 7.82933 14.1546 7.82933 14.4643V26.3017C7.81717 26.408 7.83364 26.5157 7.87704 26.6135C7.92043 26.7114 7.98919 26.7959 8.07619 26.8583C9.16141 27.6966 10.2466 28.5629 11.3365 29.399C13.3999 31.0105 15.4818 32.6034 17.5591 34.2033C17.0025 34.6365 16.5065 35.0697 15.9779 35.4725C13.4371 37.3938 10.8661 39.3151 8.32537 41.2364C8.01564 41.4855 7.79673 41.7324 7.82933 42.1982C7.85961 45.9778 7.85961 49.7901 7.82933 53.5721C7.82933 54.1589 7.95276 54.3452 8.6025 54.3452C58.6176 54.3142 108.644 54.3142 158.681 54.3452C159.27 54.3452 159.393 54.1915 159.393 53.6326C159.363 40.7426 159.363 27.7828 159.363 14.8346V14.8346ZM29.1496 44.0565C27.9712 45.5144 26.355 46.1338 24.5619 46.227C23.8469 46.2626 23.1301 46.2212 22.424 46.1036C20.6588 45.8544 18.9308 46.071 17.1562 46.1338H16.6299L16.3202 45.8241C16.3045 45.7337 16.3251 45.6408 16.3774 45.5654C16.4296 45.49 16.5095 45.4382 16.5996 45.4212H16.6602C17.126 45.391 17.622 45.4818 17.9317 45.0486C18.302 44.5526 18.3346 43.9331 18.3346 43.3439C18.3952 41.8255 18.4262 40.3072 18.4278 38.7888V25.2164C18.4278 24.8136 18.3952 24.3804 18.3649 23.9775C18.302 23.0786 17.8991 22.6757 17.0025 22.5197L16.2876 22.4265C16.1036 22.4265 15.9173 22.366 15.9173 22.1494C15.9173 21.9328 16.1036 21.8071 16.3202 21.8071H18.2415C18.6117 21.8071 18.9541 21.8397 19.3267 21.8397H20.4096C21.928 21.8397 23.479 21.6534 24.9973 21.9002C28.0947 22.366 29.1892 24.8136 28.9563 27.1377C28.8003 29.0008 27.934 30.5471 26.6019 31.8163C26.2596 32.126 26.199 32.2518 26.6927 32.4986C31.4342 35.0394 31.7765 40.8358 29.1426 44.0565H29.1496ZM52.9897 22.4591C51.7834 22.6454 51.5645 22.8294 51.5039 24.0381C51.2873 27.2611 51.441 30.4539 51.4108 33.677C51.4108 35.412 51.4107 37.147 51.1616 38.8819C50.8938 40.6798 50.428 42.4147 49.2636 43.9028C47.4657 46.1641 45.0182 46.7533 42.2585 46.4436C38.2623 46.0104 36.5878 43.2508 35.9381 40.0603C35.6743 38.6923 35.5494 37.3011 35.5655 35.908V25.2467C35.5655 24.937 35.5655 24.597 35.5352 24.2873C35.4421 23.0157 35.0695 22.6454 33.8003 22.4591C33.5208 22.4265 33.0248 22.6128 33.0876 22.1168C33.1505 21.6208 33.5837 21.8397 33.8934 21.8397C36.0615 21.8699 38.232 21.9305 40.4001 21.8397L40.9264 21.8699L41.1756 22.1797L40.9264 22.4591H40.8659C39.2217 22.862 39.1915 22.862 39.0983 24.5667C39.0378 25.7754 39.0378 26.9514 39.068 28.1601C39.0983 31.5997 38.912 35.0091 39.1915 38.4488C39.2846 39.7506 39.5012 41.0105 40.123 42.1749C41.0219 43.805 42.354 44.7156 44.2753 44.6527C46.2594 44.5596 47.4983 43.4767 48.2738 41.7394C48.863 40.4073 48.9562 38.9448 48.9865 37.5266C49.0167 36.4716 49.0167 35.419 49.0167 34.3966V25.1512C49.0217 24.8513 49.0116 24.5513 48.9865 24.2523C48.863 23.046 48.5207 22.6734 47.2818 22.5174L46.972 22.4871C46.7555 22.4871 46.5389 22.4242 46.5691 22.1471C46.5994 21.8699 46.7857 21.8676 47.0023 21.8676H47.1281C49.0493 21.8979 51.0009 21.9282 52.9222 21.8676C53.169 21.8676 53.5113 21.8047 53.5113 22.1773C53.5416 22.4871 53.2016 22.4242 52.9827 22.4568L52.9897 22.4591ZM65.9682 44.5805C65.5356 45.0983 65.0036 45.524 64.4036 45.8324C63.8035 46.1408 63.1477 46.3257 62.4749 46.376C60.8331 46.5624 59.2146 46.4692 57.6729 45.88C56.774 45.5097 56.6809 45.3863 56.6809 44.4245C56.7111 43.0272 56.774 41.6299 56.8043 40.2326V40.0556C56.8974 39.8693 56.8043 39.4967 57.1466 39.5293C57.489 39.5619 57.3632 39.8693 57.3632 40.0556C57.3979 40.7075 57.5121 41.3527 57.7032 41.9769C57.9669 42.8944 58.556 43.6844 59.3602 44.1988C60.1644 44.7132 61.1285 44.9168 62.0721 44.7715C63.7162 44.5549 64.9249 42.976 65.0157 41.0221C65.1065 39.0682 64.2728 37.6453 62.8476 36.4996C61.6389 35.5075 60.3371 34.6365 59.2845 33.4931C57.27 31.262 56.6506 28.6584 57.4563 25.808C58.169 23.2975 60.4 21.6161 63.0036 21.4694C64.3139 21.4099 65.6256 21.5521 66.8927 21.8909C67.3259 22.0143 67.4516 22.2332 67.419 22.6664C67.3887 23.2556 67.419 23.875 67.419 24.4642H67.3887C67.3887 25.1769 67.419 25.8895 67.3887 26.6021C67.3887 26.8187 67.419 27.1587 67.079 27.1587C66.739 27.1587 66.8624 26.8187 66.8322 26.6021C66.6761 25.2048 66.1801 23.9682 64.8177 23.379C64.2264 23.1018 63.57 22.9936 62.921 23.0664C62.272 23.1391 61.6558 23.39 61.1405 23.7912C59.5593 24.9696 59.4358 27.6035 60.8937 29.2453C61.6366 30.0813 62.5658 30.7334 63.4554 31.3831C65.1298 32.6221 66.6785 33.9868 67.3282 36.0408C68.3831 39.1078 68.1666 42.0212 65.9658 44.5945L65.9682 44.5805ZM78.9816 46.1432C78.5158 46.1432 78.0198 46.1734 77.5563 46.1432C75.9472 46.0197 74.3309 46.0197 72.7217 46.1432C72.3794 46.1734 72.0394 46.1432 71.6994 46.1432C71.4828 46.1432 71.2965 46.0803 71.2639 45.8334C71.2313 45.5866 71.4199 45.4608 71.6365 45.4608C72.1023 45.4306 72.6286 45.5237 72.9383 45.0579C73.248 44.5922 73.2783 43.9727 73.3109 43.3858C73.4343 40.3584 73.4343 37.3123 73.4041 34.3035C73.3738 31.2946 73.4041 28.2905 73.3715 25.2863C73.3715 24.9137 73.3412 24.5411 73.3109 24.1382C73.2178 22.9622 72.908 22.6524 71.7599 22.4964C71.5131 22.4661 71.1707 22.5267 71.1707 22.1564C71.1707 21.7861 71.5433 21.8467 71.7925 21.8467H78.2992C78.5461 21.8467 78.8884 21.7838 78.8884 22.1564C78.8884 22.529 78.5787 22.4335 78.3621 22.4661C77.1535 22.6524 76.9648 22.869 76.874 24.0451C76.8111 24.6971 76.7808 25.3166 76.7808 25.9663V41.6392C76.7808 42.3845 76.8437 43.16 76.874 43.9028C76.9345 44.9555 77.3398 45.3583 78.3924 45.4212H78.9187C79.1679 45.4212 79.5079 45.4212 79.5079 45.7612C79.5079 46.1012 79.2284 46.1338 78.9816 46.1338V46.1432ZM103.201 22.4265C101.683 22.7363 101.622 22.7689 101.466 24.2896C101.28 26.2411 101.406 28.1927 101.343 30.1465C101.25 35.1046 101.189 40.0324 101.126 44.9904V45.5773C101.063 45.887 101.126 46.3225 100.754 46.4459C100.381 46.5693 100.104 46.2899 99.8873 46.043C99.3587 45.4236 98.8324 44.7715 98.3363 44.152C94.3401 39.194 90.3415 34.2359 86.6923 28.9984L86.4454 28.6887C86.4454 30.7357 86.4128 32.7478 86.4454 34.7623C86.506 37.4893 86.5991 40.2163 86.662 42.9434C86.6653 43.341 86.7169 43.7366 86.8157 44.1218C87.0323 45.0533 87.3746 45.3304 88.3667 45.3607L88.7696 45.3933C88.9536 45.4236 89.1725 45.4538 89.1725 45.7333C89.1725 46.0128 88.9535 46.0733 88.7067 46.0733C88.3341 46.0733 87.9941 46.1059 87.6215 46.0733C85.9797 45.9196 84.3611 46.043 82.731 46.0733C82.4818 46.0733 82.1115 46.1991 82.0789 45.7636C82.0463 45.3281 82.4515 45.3933 82.731 45.3607C83.8465 45.3001 84.1562 45.051 84.2191 43.9634C84.4357 40.1837 84.403 36.4041 84.4659 32.5918C84.5288 29.1521 84.5591 25.6822 84.5894 22.2426V21.9934C84.6522 21.7465 84.6522 21.3739 84.962 21.311C85.2717 21.2482 85.458 21.5299 85.6117 21.7465C87.1301 23.7609 88.6392 25.7754 90.1995 27.7875C93.2036 31.6626 96.2101 35.5657 99.1538 39.5014L99.3098 39.6877L99.4029 39.0985C99.3401 34.3896 99.2469 29.6785 99.1538 24.9696C99.1438 24.5533 99.1025 24.1384 99.0303 23.7283C98.8766 22.7968 98.4411 22.4894 97.2954 22.3963C97.0159 22.366 96.5827 22.5197 96.5827 22.0865C96.5827 21.6534 97.0159 21.7768 97.3256 21.7768C99.1235 21.8071 100.952 21.8699 102.749 21.7768H103.122L103.462 22.0562C103.585 22.3334 103.432 22.3962 103.213 22.4265H103.201ZM119.855 41.7021C119.835 42.9587 119.722 44.212 119.515 45.4515C119.421 46.0104 119.142 46.2573 118.553 46.2573C117.097 46.227 115.639 46.2573 114.184 46.1338C112.107 45.9475 109.992 46.0407 107.924 46.1641C107.727 46.1691 107.53 46.159 107.335 46.1338L107.088 45.8544L107.305 45.4818L107.491 45.4212C108.916 45.1418 109.102 44.9555 109.133 43.4371C109.195 41.7029 109.226 39.9679 109.226 38.2322V25.3096C109.226 24.8764 109.196 24.4409 109.163 24.0078C109.102 23.0763 108.697 22.6757 107.766 22.5523C107.517 22.5197 107.237 22.4894 106.99 22.4591L106.711 22.2099L106.96 21.9305C107.154 21.8954 107.35 21.8751 107.547 21.8699C109.221 21.9305 110.893 21.9934 112.072 21.9631H117.093C117.693 21.9813 118.292 21.8865 118.858 21.6836C119.168 21.5602 119.354 21.6208 119.293 21.9631C119.074 23.3883 119.107 24.8136 118.921 26.2388C118.89 26.3948 118.858 26.6417 118.611 26.6114C118.364 26.5811 118.455 26.3622 118.425 26.2085C118.43 26.0116 118.42 25.8147 118.394 25.6193C118.178 24.3478 117.682 23.9449 116.41 23.8518C115.295 23.7912 114.179 23.7283 113.064 23.7283C112.724 23.7283 112.568 23.8215 112.568 24.1941V31.8489C112.568 32.0958 112.568 32.3147 112.908 32.2821C114.335 32.2518 115.791 32.2518 117.216 32.1889C117.448 32.1902 117.677 32.1343 117.883 32.0263C118.088 31.9183 118.264 31.7614 118.394 31.5694L118.734 31.3203L118.89 31.7558C118.797 32.7781 118.704 33.7702 118.641 34.7832C118.611 35.3095 118.581 35.8661 118.581 36.3948C118.581 36.5811 118.518 36.7976 118.332 36.7976C118.085 36.7976 118.115 36.5485 118.115 36.3948C117.929 34.3803 117.712 34.1637 115.667 34.0659C114.799 34.0333 113.963 34.0031 113.106 33.9402C112.766 33.9402 112.61 34.0031 112.61 34.4059C112.61 36.8861 112.579 39.3943 112.642 41.8744C112.673 43.486 113.355 44.1683 114.997 44.2615C115.646 44.2918 116.268 44.2918 116.918 44.2615C118.436 44.1683 119.086 43.5465 119.335 42.0608L119.428 41.5344C119.489 41.3481 119.428 41.0058 119.738 41.0687C119.892 41.1618 119.862 41.4716 119.862 41.6881L119.855 41.7021ZM133.124 44.5712C132.692 45.089 132.16 45.5147 131.56 45.8231C130.96 46.1315 130.304 46.3164 129.631 46.3667C127.991 46.5821 126.322 46.4017 124.766 45.8404C124.114 45.5936 123.774 45.1907 123.835 44.4431C123.928 43.0179 123.928 41.6229 123.96 40.1977V40.0137C124.051 39.8274 123.96 39.4548 124.3 39.4851C124.58 39.5177 124.517 39.8274 124.517 40.0137C124.537 40.6672 124.651 41.3143 124.857 41.935C125.479 43.8865 127.214 45.002 129.228 44.7296C130.87 44.513 132.079 42.9317 132.172 40.9802C132.265 39.0286 131.426 37.6034 129.971 36.4553C128.762 35.4632 127.46 34.5923 126.408 33.4511C124.424 31.2807 123.835 28.7399 124.545 25.9197C125.167 23.379 127.521 21.5509 130.155 21.4275C131.428 21.3741 132.702 21.5098 133.935 21.8303C134.431 21.9538 134.647 22.1704 134.587 22.6967C134.555 23.2746 134.555 23.8537 134.587 24.4316H134.524C134.524 25.1443 134.554 25.8569 134.524 26.5695C134.524 26.7558 134.554 27.1284 134.214 27.1284C133.874 27.1284 133.997 26.7884 133.967 26.5695C133.811 25.1722 133.315 23.9356 131.953 23.3487C131.359 23.0649 130.698 22.9525 130.044 23.0241C129.389 23.0957 128.768 23.3485 128.25 23.754C126.671 24.93 126.545 27.5639 128.003 29.208C128.746 30.0441 129.675 30.6938 130.565 31.3459C132.239 32.5848 133.788 33.9472 134.44 36.0035C135.523 39.1008 135.306 42.0142 133.106 44.5875L133.124 44.5712ZM148.569 44.5549C148.135 45.0862 147.598 45.5248 146.991 45.8449C146.385 46.1649 145.72 46.3598 145.036 46.418C143.398 46.6271 141.733 46.4419 140.18 45.8777C139.531 45.6308 139.188 45.2279 139.249 44.4804C139.342 43.0552 139.342 41.6602 139.405 40.235L139.435 39.9858C139.528 39.7995 139.466 39.4897 139.775 39.52C140.024 39.5503 139.992 39.7972 139.992 40.0161C140.014 40.6893 140.129 41.3563 140.334 41.9979C140.954 43.9494 142.689 45.0673 144.703 44.7925C146.333 44.5759 147.553 42.9946 147.647 41.0431C147.74 39.0915 146.904 37.664 145.446 36.5182C144.237 35.5261 142.938 34.6551 141.883 33.5117C139.899 31.3436 139.321 28.8028 140.02 25.9826C140.639 23.4419 142.994 21.6114 145.628 21.488C146.903 21.4361 148.18 21.5718 149.417 21.8909C149.882 22.0143 150.129 22.2332 150.066 22.7595C150.035 23.3374 150.035 23.9166 150.066 24.4945H150.003C150.003 25.2071 150.036 25.9197 150.003 26.6324C150.003 26.8489 150.036 27.1913 149.694 27.1913C149.351 27.1913 149.477 26.8489 149.447 26.6324C149.291 25.2351 148.795 23.9985 147.432 23.4093C146.846 23.1297 146.193 23.0193 145.547 23.0905C144.901 23.1617 144.288 23.4116 143.776 23.8122C142.195 24.9906 142.071 27.6244 143.527 29.2663C144.272 30.1023 145.201 30.7544 146.1 31.4041C147.772 32.6128 149.291 33.9774 149.973 35.9919C150.965 39.0193 150.779 41.942 148.576 44.5433" fill="#141414" fill-opacity="0.5"/>
<path d="M226.98 14.0288H161.44C160.665 14.0288 160.665 14.0288 160.665 14.8043V53.5628C160.665 54.3359 160.665 54.3359 161.44 54.3359H227.01C227.786 54.3359 227.786 54.3359 227.786 53.5628V14.8672C227.816 14.0288 227.816 14.0288 226.98 14.0288V14.0288ZM175.849 46.2573C173.774 46.5367 171.696 46.2573 169.652 46.071C168.682 46.0104 167.709 46.0104 166.738 46.071C166.212 46.1036 165.653 46.1036 165.127 46.1338C164.88 46.1338 164.631 46.1338 164.631 45.7938C164.631 45.4538 164.88 45.4515 165.097 45.4515C166.398 45.4818 166.582 44.9252 166.675 43.7165C166.769 42.5079 166.801 41.3295 166.801 40.1208V24.5038C166.738 23.0483 166.305 22.5825 164.88 22.4894L164.507 22.4591L164.198 22.1494C164.198 21.9631 164.351 21.8699 164.507 21.8397L165.034 21.8071C166.645 21.7768 168.257 21.9934 169.961 21.8397C172.316 21.8397 174.796 21.6836 177.213 22.0865C181.172 22.7688 183.75 25.0604 184.866 28.9029C186.2 33.3673 185.828 37.7059 183.347 41.7324C181.643 44.492 178.979 45.7938 175.849 46.2573V46.2573ZM206.403 46.1036C204.514 46.1036 202.623 46.1641 200.732 46.0104C200.546 45.9778 200.266 46.1036 200.175 45.7938C200.085 45.4841 200.362 45.4818 200.515 45.3909C200.621 45.3319 200.7 45.2339 200.735 45.1178C200.77 45.0017 200.758 44.8767 200.702 44.7691C200.052 42.601 199.37 40.4329 198.718 38.2927C198.705 38.2408 198.682 38.1921 198.65 38.1495C198.618 38.107 198.577 38.0716 198.53 38.0455C198.484 38.0195 198.432 38.0034 198.379 37.9982C198.326 37.9931 198.272 37.999 198.222 38.0156H192.614C192.367 38.0156 192.211 38.0459 192.118 38.3253C191.561 40.214 190.816 42.0514 190.446 43.9634C190.259 44.8949 190.413 45.5749 191.61 45.4515C191.859 45.4212 192.169 45.4212 192.169 45.8241C192.169 46.227 191.859 46.1641 191.61 46.1641C189.747 46.0104 187.861 46.1036 186.002 46.1641C185.753 46.1641 185.443 46.1967 185.443 45.8241C185.443 45.5144 185.693 45.4515 185.939 45.4515C187.085 45.5144 187.768 44.8623 188.14 43.8726C188.76 42.1981 189.316 40.4935 189.905 38.8214C191.768 33.3044 193.655 27.82 195.515 22.3031C195.639 21.9305 195.702 21.4368 196.165 21.4042C196.692 21.3739 196.754 21.9305 196.878 22.3031C199.079 28.7795 201.247 35.2257 203.447 41.7021C203.731 42.6346 204.127 43.5292 204.626 44.3663C205.059 45.0812 205.618 45.4841 206.489 45.4515C206.738 45.4515 207.078 45.4212 207.048 45.7938C206.955 46.1338 206.645 46.1036 206.396 46.1036H206.403ZM222.993 22.4591C222.526 22.511 222.078 22.6765 221.689 22.9412C221.3 23.2058 220.982 23.5616 220.762 23.9775C219.09 26.7045 217.788 29.5853 216.424 32.4684C215.897 33.5513 215.308 34.6365 215.215 35.8754C215.185 36.3714 215.154 36.8675 215.154 37.3635C215.185 39.534 215.061 41.7021 215.248 43.8726C215.341 44.9881 215.744 45.3583 216.878 45.4212C217.116 45.4162 217.354 45.4263 217.59 45.4515C217.807 45.4818 217.993 45.5749 217.993 45.8241C217.975 45.9217 217.92 46.0084 217.839 46.0662C217.758 46.1239 217.658 46.1481 217.56 46.1338C216.908 46.1338 216.289 46.1641 215.639 46.1036C213.841 45.9172 212.043 46.1036 210.245 46.1338H209.779L209.47 45.8241L209.747 45.4818L210.089 45.4515C211.081 45.3909 211.452 45.0812 211.514 44.0891C211.67 41.4553 211.761 38.8214 211.545 36.2177C211.455 35.3996 211.203 34.6077 210.802 33.8889C209.377 31.0385 207.951 28.1554 206.494 25.3049C206.202 24.7184 205.86 24.1581 205.471 23.6305C205.269 23.3303 205.009 23.074 204.706 22.8771C204.402 22.6802 204.062 22.5467 203.706 22.4847C203.489 22.4545 203.27 22.4219 203.303 22.1447C203.336 21.8676 203.55 21.835 203.799 21.835C205.844 21.8955 207.858 21.8955 209.903 21.835C210.089 21.835 210.336 21.835 210.369 22.0819C210.401 22.3287 210.182 22.4219 209.996 22.4545C209.47 22.5779 209.377 22.9505 209.53 23.4139L209.686 23.8797C211.142 27.0702 212.567 30.2327 214.085 33.5466C215.42 30.2001 217.113 27.2262 218.177 23.9402C218.457 23.0436 218.363 22.8876 217.525 22.4219L217.309 22.0516L217.618 21.835H217.805C219.54 21.9258 221.277 21.8955 223.012 21.835C223.228 21.835 223.445 21.835 223.478 22.0819C223.447 22.3613 223.231 22.4219 222.982 22.4545" fill="#141414" fill-opacity="0.5"/>
<path d="M103.21 21.8396H102.84C101.042 21.9304 99.2142 21.8699 97.4163 21.8396C97.1369 21.8396 96.7037 21.7464 96.6734 22.1493C96.6432 22.5522 97.1066 22.4264 97.3861 22.459C98.5318 22.5522 98.965 22.8619 99.121 23.7911C99.1932 24.2004 99.2345 24.6146 99.2444 25.0301C99.3376 29.7412 99.4308 34.4501 99.4936 39.131L99.4005 39.7179L99.2444 39.5339C96.3008 35.5982 93.2943 31.6928 90.2902 27.82C88.7392 25.8358 87.2208 23.7911 85.7024 21.7767C85.5487 21.5601 85.3624 21.2807 85.0527 21.3435C84.7429 21.4064 84.7429 21.7767 84.68 22.0236V22.2727C84.6498 25.7124 84.6195 29.1823 84.5566 32.622C84.4937 36.404 84.5566 40.1836 84.3074 43.9959C84.2469 45.0811 83.9372 45.3583 82.8217 45.4211C82.5422 45.4211 82.1393 45.3583 82.1696 45.824C82.1999 46.2898 82.5725 46.1338 82.8217 46.1338C84.4518 46.1035 86.082 45.9777 87.7122 46.1338C88.0545 46.164 88.4248 46.1338 88.7974 46.1338C89.0442 46.1338 89.2632 46.0709 89.2632 45.7938C89.2632 45.5166 89.0466 45.4817 88.8626 45.4514L88.4597 45.4211C87.4979 45.3583 87.1253 45.0811 86.9087 44.1822C86.8099 43.7971 86.7583 43.4014 86.755 43.0038C86.6619 40.2768 86.5687 37.5498 86.5384 34.8227C86.5058 32.8083 86.5384 30.7636 86.5384 28.7492L86.7853 29.0589C90.4415 34.2661 94.4401 39.2242 98.4294 44.2125C98.9254 44.8622 99.4517 45.4817 99.9803 46.1035C100.197 46.3503 100.474 46.6298 100.847 46.5064C101.219 46.3829 101.189 45.9474 101.219 45.6377C101.234 45.4416 101.234 45.2446 101.219 45.0485C101.28 40.0905 101.343 35.1627 101.436 30.2047C101.466 28.2531 101.343 26.3016 101.529 24.3477C101.683 22.8293 101.746 22.8293 103.264 22.4847C103.45 22.4544 103.604 22.3612 103.604 22.1447L103.21 21.8396Z" fill="white"/>
<path d="M26.6742 32.5289C26.2084 32.282 26.241 32.1586 26.581 31.8489C27.9131 30.5773 28.7817 29.0287 28.9378 27.168C29.1217 24.8391 28.0691 22.3962 24.9788 21.9305C23.4604 21.7139 21.9117 21.9002 20.3933 21.8699H19.2941C18.9239 21.8699 18.5815 21.8396 18.2089 21.8396H16.2877C16.0711 21.8396 15.8848 21.9305 15.8848 22.1796C15.8848 22.4288 16.0711 22.4591 16.2574 22.4591C16.4968 22.4739 16.7348 22.5051 16.97 22.5522C17.8689 22.6757 18.2415 23.1088 18.3347 24.0078C18.365 24.4106 18.3952 24.8438 18.3952 25.2467C18.3952 29.7716 18.4278 34.2965 18.3952 38.8213C18.3952 40.3397 18.3347 41.8488 18.3021 43.3765C18.2718 43.9634 18.2718 44.5852 17.8992 45.0812C17.5895 45.5144 17.0934 45.4212 16.63 45.4515H16.5671C16.3808 45.5143 16.2574 45.6075 16.2877 45.8544L16.5997 46.1641H17.126C18.8913 46.1338 20.6192 45.8846 22.3635 46.1338C23.0713 46.2364 23.7865 46.2777 24.5014 46.2572C26.3295 46.1338 27.9084 45.5144 29.0868 44.0891C31.7836 40.8288 31.4412 35.0393 26.6695 32.5289H26.6742ZM22.3635 23.2882C23.479 23.1647 24.4595 23.4745 25.058 24.4339C26.3295 26.481 26.5461 28.6491 25.4608 30.8498C24.9043 31.9653 23.0133 32.5219 21.8978 31.9956C21.6183 31.8722 21.6812 31.6556 21.6812 31.439V27.664C21.6812 26.4553 21.7115 25.2164 21.6812 24.0078C21.6812 23.5117 21.8978 23.358 22.3635 23.2951V23.2882ZM26.8861 43.0342C25.9546 45.0183 23.7259 44.988 22.4613 44.2125C22.2868 44.1008 22.1402 43.9506 22.0328 43.7734C21.9254 43.5961 21.8601 43.3966 21.8419 43.1902C21.7384 42.5553 21.6971 41.9118 21.7184 41.2689V34.1404C21.7184 33.6444 21.8745 33.5512 22.3379 33.521C24.0123 33.3975 25.1884 34.173 26.0873 35.5051C27.0491 36.9303 27.4217 38.479 27.5125 40.0906C27.4217 41.1758 27.3286 42.1352 26.8931 43.0342" fill="white"/>
<path d="M52.9479 21.8396C51.0267 21.9001 49.0751 21.8699 47.1538 21.8396H47.0304C46.8115 21.8396 46.5949 21.8699 46.5949 22.1493C46.5949 22.4288 46.7812 22.4591 46.9978 22.4591L47.3075 22.4893C48.5488 22.6454 48.8888 23.0156 49.0122 24.2243C49.0394 24.5231 49.0503 24.8232 49.0448 25.1232V34.357C49.0448 35.4119 49.0448 36.4645 49.0122 37.4869C48.982 38.9145 48.8888 40.37 48.2996 41.7021C47.5567 43.437 46.2852 44.5222 44.3034 44.6154C42.3821 44.7086 41.043 43.7793 40.1511 42.1352C39.5293 40.9894 39.3127 39.7179 39.2196 38.4091C38.9727 34.9694 39.159 31.5601 39.0961 28.1204C39.0961 26.9118 39.0659 25.7334 39.159 24.5247C39.2522 22.82 39.2824 22.82 40.9243 22.4171H40.9871L41.234 22.14L40.9871 21.8606L40.4608 21.8303C38.2904 21.9211 36.1222 21.8606 33.9518 21.8303C33.6723 21.8303 33.2089 21.644 33.146 22.1074C33.0831 22.5708 33.6118 22.4171 33.8586 22.4497C35.1302 22.6361 35.5028 23.0063 35.5936 24.2779C35.6208 24.5969 35.6316 24.9172 35.6262 25.2373V35.8986C35.6079 37.293 35.7296 38.6856 35.9895 40.0556C36.6416 43.2461 38.2834 46.0057 42.3122 46.4389C45.0695 46.7486 47.4869 46.1594 49.315 43.8981C50.4934 42.4403 50.9265 40.7053 51.206 38.8772C51.4528 37.1422 51.4528 35.4073 51.4528 33.6723C51.4854 30.4492 51.362 27.2564 51.546 24.0333C51.6089 22.8247 51.8254 22.6361 53.0341 22.4544C53.2507 22.4218 53.593 22.4847 53.593 22.1447C53.4999 21.7721 53.1901 21.8023 52.9409 21.8349" fill="white"/>
<path d="M119.636 41.1455C119.326 41.0826 119.389 41.4226 119.326 41.6112L119.233 42.1376C118.986 43.6257 118.334 44.2451 116.815 44.3383C116.166 44.3686 115.544 44.3686 114.894 44.3383C113.283 44.2451 112.565 43.5628 112.54 41.9536C112.507 39.4734 112.54 36.9629 112.507 34.4851C112.507 34.0822 112.693 34.0193 113.003 34.0193C113.872 34.0496 114.708 34.1125 115.576 34.1427C117.591 34.2056 117.838 34.4222 118.024 36.4716C118.024 36.6579 117.994 36.8744 118.241 36.8744C118.488 36.8744 118.49 36.6276 118.49 36.4716C118.52 35.9452 118.52 35.3887 118.55 34.86C118.613 33.8377 118.706 32.8456 118.8 31.8326L118.644 31.3994L118.304 31.6463C118.173 31.8385 117.997 31.9957 117.792 32.1041C117.586 32.2126 117.357 32.2688 117.125 32.268C115.7 32.3286 114.244 32.3286 112.819 32.3589C112.507 32.3589 112.477 32.1423 112.477 31.9257V24.2546C112.477 23.8843 112.6 23.7888 112.973 23.7888C114.088 23.7888 115.204 23.8494 116.319 23.9123C117.621 24.0054 118.087 24.4083 118.304 25.6798C118.329 25.8744 118.339 26.0706 118.334 26.2667C118.334 26.4227 118.304 26.6393 118.52 26.6696C118.737 26.6999 118.8 26.453 118.83 26.2993C119.016 24.8741 118.953 23.4488 119.202 22.0213C119.263 21.6813 119.077 21.6184 118.767 21.7441C118.201 21.9462 117.602 22.0402 117.002 22.0213H111.981C110.805 22.0539 109.13 21.991 107.456 21.9281C107.259 21.9341 107.063 21.9551 106.869 21.991L106.62 22.2705L106.899 22.5173C107.146 22.5499 107.426 22.5802 107.675 22.6105C108.606 22.7665 109.007 23.1368 109.072 24.0683C109.105 24.5015 109.135 24.9346 109.135 25.3701C109.135 29.6761 109.165 33.9867 109.165 38.2904C109.165 40.0276 109.105 41.7626 109.072 43.4976C109.042 45.016 108.856 45.2023 107.43 45.4794L107.244 45.512L107.018 45.8776L107.267 46.1571C107.462 46.1842 107.658 46.1951 107.854 46.1897C109.962 46.0639 112.046 45.9708 114.114 46.1571C115.572 46.2805 117.027 46.2502 118.485 46.2805C119.072 46.2805 119.351 46.0337 119.445 45.4748C119.667 44.2372 119.78 42.9827 119.785 41.7254C119.848 41.4785 119.878 41.1688 119.631 41.1385" fill="white"/>
<path d="M146.068 31.3831C145.171 30.7334 144.24 30.0813 143.506 29.2453C142.05 27.6034 142.144 24.9696 143.753 23.7912C144.27 23.3892 144.889 23.1388 145.54 23.0676C146.191 22.9965 146.85 23.1075 147.442 23.3883C148.804 23.9775 149.305 25.2164 149.456 26.6114C149.486 26.828 149.363 27.168 149.703 27.168C150.043 27.168 149.982 26.828 150.013 26.6114C150.045 25.8988 150.013 25.1861 150.013 24.4735H150.076C150.076 23.8843 150.045 23.3254 150.076 22.7362C150.138 22.2099 149.919 21.9933 149.426 21.8699C148.192 21.5505 146.917 21.4148 145.644 21.467C142.98 21.5904 140.655 23.4186 140.036 25.9593C139.323 28.7795 139.91 31.3156 141.899 33.4907C142.954 34.6365 144.254 35.5354 145.462 36.4972C146.92 37.6616 147.756 39.0985 147.663 41.0197C147.57 42.941 146.361 44.5526 144.719 44.7691C143.775 44.925 142.805 44.7257 141.999 44.2097C141.192 43.6938 140.605 42.8976 140.35 41.9746C140.145 41.3322 140.03 40.6644 140.008 39.9904C140.008 39.8041 140.041 39.5247 139.791 39.4944C139.482 39.4641 139.512 39.7738 139.451 39.9601L139.421 40.207C139.389 41.6322 139.358 43.0272 139.265 44.4524C139.202 45.1976 139.545 45.6005 140.197 45.8497C141.778 46.4389 143.42 46.532 145.062 46.376C145.749 46.3152 146.418 46.1193 147.03 45.7996C147.642 45.4799 148.184 45.0427 148.627 44.513C150.795 41.9094 151.012 38.996 149.959 35.929C149.246 33.9448 147.728 32.5825 146.084 31.3738" fill="white"/>
<path d="M130.604 31.3831C129.708 30.7334 128.776 30.0813 128.043 29.2453C126.587 27.6034 126.71 24.9696 128.289 23.7912C128.807 23.3892 129.425 23.1388 130.077 23.0676C130.728 22.9965 131.386 23.1075 131.978 23.3883C133.341 23.9775 133.841 25.2164 133.993 26.6114C134.023 26.8279 133.899 27.168 134.239 27.168C134.58 27.168 134.519 26.7977 134.549 26.6114C134.582 25.8988 134.549 25.1861 134.549 24.4735H134.612C134.612 23.8843 134.582 23.3254 134.612 22.7362C134.675 22.2099 134.458 21.9933 133.962 21.8699C132.728 21.5505 131.454 21.4148 130.18 21.467C127.516 21.5904 125.192 23.3883 124.573 25.9593C123.86 28.7795 124.479 31.3156 126.436 33.4907C127.491 34.6365 128.79 35.5051 129.999 36.4972C131.457 37.6616 132.293 39.0985 132.199 41.0197C132.106 42.941 130.898 44.5525 129.256 44.7691C128.311 44.925 127.342 44.7257 126.535 44.2097C125.729 43.6938 125.142 42.8976 124.887 41.9746C124.692 41.3515 124.572 40.7072 124.531 40.0556C124.531 39.839 124.594 39.5596 124.314 39.5293C123.974 39.4967 124.035 39.8693 123.974 40.0556V40.2419C123.944 41.6671 123.911 43.0621 123.851 44.4874C123.788 45.2302 124.128 45.6331 124.782 45.8846C126.361 46.4738 128.005 46.567 129.647 46.4133C131.001 46.2895 132.253 45.6449 133.14 44.6154C135.339 42.0421 135.558 39.1311 134.538 36.0617C133.825 33.9867 132.307 32.622 130.602 31.3831" fill="white"/>
<path d="M63.4532 31.3831C62.5542 30.7334 61.625 30.0813 60.8915 29.2452C59.4336 27.6034 59.557 24.9695 61.1383 23.7912C61.6557 23.3892 62.2744 23.1387 62.9257 23.0676C63.577 22.9965 64.2352 23.1075 64.8272 23.3883C66.1895 23.9775 66.6902 25.2164 66.8416 26.6114C66.8719 26.8279 66.7484 27.1679 67.0884 27.1679C67.4284 27.1679 67.3679 26.7977 67.3982 26.6114C67.4284 25.8987 67.3982 25.1861 67.3982 24.4735H67.461C67.461 23.8843 67.4284 23.2649 67.461 22.6757C67.4789 22.5899 67.4792 22.5014 67.4621 22.4155C67.445 22.3296 67.4108 22.248 67.3614 22.1756C67.3121 22.1033 67.2487 22.0416 67.1749 21.9942C67.1012 21.9469 67.0187 21.9149 66.9324 21.9002C65.6646 21.5394 64.3454 21.393 63.0293 21.467C61.7654 21.5131 60.5483 21.9575 59.5521 22.7367C58.5558 23.5158 57.8313 24.59 57.4821 25.8056C56.6763 28.6863 57.2958 31.2597 59.3102 33.4907C60.3628 34.6667 61.6646 35.5051 62.8733 36.4972C64.3311 37.6616 65.1672 39.0985 65.0437 41.0197C64.9203 42.941 63.7419 44.5525 62.1001 44.7691C61.1551 44.925 60.1857 44.7259 59.3787 44.2099C58.5717 43.694 57.9841 42.8978 57.7289 41.9745C57.5389 41.3501 57.4247 40.705 57.3889 40.0533C57.3889 39.8367 57.4518 39.5572 57.1421 39.527C56.8323 39.4967 56.8929 39.867 56.7997 40.0533V40.2396C56.7695 41.6369 56.7066 43.0341 56.6763 44.4314C56.646 45.3932 56.7392 45.5469 57.6684 45.8869C59.217 46.5087 60.8286 46.5693 62.4704 46.383C63.824 46.2617 65.0771 45.6176 65.9636 44.5875C68.1643 42.0141 68.3809 39.1008 67.3609 36.0035C66.6786 33.989 65.1602 32.5941 63.4555 31.3854" fill="white"/>
<path d="M78.9468 45.4119H78.4205C77.3679 45.349 76.965 44.9461 76.9021 43.8935C76.8416 43.1506 76.809 42.3751 76.809 41.6299V25.9593C76.809 25.3095 76.8416 24.6901 76.9021 24.038C76.9953 22.8294 77.1816 22.6407 78.3903 22.4591C78.6068 22.4265 78.9468 22.4893 78.9166 22.1493C78.8863 21.8093 78.5766 21.8396 78.3274 21.8396H71.8207C71.5715 21.8396 71.2315 21.807 71.2012 22.1493C71.1709 22.4917 71.5412 22.4591 71.7904 22.4894C72.9362 22.6454 73.2459 22.9854 73.3391 24.1312C73.3693 24.5038 73.4019 24.8764 73.4019 25.2793C73.4019 28.2834 73.4322 31.2899 73.4322 34.2964C73.4322 37.3029 73.4625 40.37 73.3391 43.3788C73.3088 43.9657 73.3088 44.5432 72.9664 45.0509C72.6241 45.5586 72.1304 45.4235 71.6646 45.4538C71.4481 45.4841 71.2618 45.5772 71.2944 45.8264C71.327 46.0756 71.5109 46.1361 71.7275 46.1361C72.0675 46.1361 72.4099 46.1664 72.7499 46.1361C74.359 46.0127 75.9753 46.0127 77.5845 46.1361C78.0502 46.1664 78.544 46.1361 79.0097 46.1361C79.2892 46.1361 79.5686 46.1664 79.5686 45.7961C79.5686 45.4258 79.2263 45.4235 78.9468 45.4235" fill="white"/>
<path d="M184.866 28.9029C183.75 25.0929 181.179 22.7688 177.213 22.0864C174.764 21.6836 172.323 21.8396 169.962 21.8396C168.257 21.9933 166.645 21.7767 165.034 21.807L164.507 21.8396C164.351 21.8699 164.198 21.9304 164.198 22.1167L164.507 22.4265L164.88 22.4591C166.336 22.5825 166.769 23.0482 166.801 24.4735V40.0905C166.801 41.2992 166.769 42.4775 166.676 43.6862C166.582 44.8949 166.398 45.4514 165.097 45.4212C164.88 45.4212 164.631 45.4817 164.631 45.7612C164.631 46.1035 164.88 46.1338 165.127 46.1035C165.653 46.1035 166.212 46.0709 166.738 46.0406C167.709 45.9777 168.682 45.9777 169.652 46.0406C171.727 46.1967 173.774 46.5064 175.849 46.2269C178.979 45.7938 181.643 44.492 183.348 41.702C185.828 37.7058 186.168 33.3672 184.866 28.8936V28.9029ZM180.907 40.4538C179.885 43.118 177.747 44.45 174.927 44.6457C173.971 44.7455 173.006 44.6721 172.076 44.4291C170.867 44.0565 170.465 43.4976 170.371 42.2284C170.185 39.2847 170.278 36.3411 170.278 34.7296V24.6854C170.278 23.7539 170.432 23.5699 171.364 23.4767C176.042 23.0739 179.915 25.3677 181.186 29.8298C182.209 33.4231 182.239 36.9862 180.907 40.4585" fill="#FCFDFF"/>
<path d="M206.403 45.4119C205.567 45.4422 204.977 45.0393 204.54 44.3267C204.053 43.4832 203.658 42.5901 203.361 41.6625C201.163 35.1861 198.992 28.7399 196.792 22.2635C196.668 21.8909 196.608 21.332 196.079 21.3646C195.613 21.3948 195.553 21.8909 195.429 22.2635C193.566 27.7781 191.68 33.2648 189.819 38.7794C189.232 40.4841 188.673 42.1585 188.054 43.8306C187.681 44.8227 187.032 45.4608 185.853 45.4119C185.606 45.3816 185.357 45.4422 185.357 45.7845C185.357 46.1268 185.667 46.1245 185.916 46.1245C187.779 46.0616 189.665 45.9685 191.524 46.1245C191.773 46.1548 192.083 46.1874 192.083 45.7845C192.083 45.3816 191.773 45.4119 191.524 45.4119C190.315 45.505 190.162 44.853 190.359 43.9238C190.762 42.0025 191.505 40.1744 192.032 38.2834C192.125 38.0063 192.281 37.9737 192.528 37.9737H198.138C198.385 37.9737 198.571 38.0063 198.631 38.2531C199.283 40.4236 199.966 42.5917 200.616 44.7295C200.66 44.8385 200.666 44.9595 200.632 45.0722C200.598 45.1849 200.526 45.2826 200.429 45.349C200.276 45.4422 200.026 45.505 200.089 45.7519C200.15 46.0616 200.429 45.9685 200.646 45.9685C202.537 46.1245 204.428 46.0616 206.317 46.0616C206.566 46.0616 206.875 46.0942 206.906 45.7216C206.999 45.3816 206.689 45.4119 206.41 45.4119H206.403ZM197.113 36.1781H193.177C192.993 36.1781 192.712 36.269 192.837 35.8661C193.706 33.1716 194.542 30.5098 195.441 27.6244C196.247 30.2886 197.022 32.799 197.795 35.3095C198.045 36.1781 198.045 36.1781 197.113 36.1781" fill="#FCFDFF"/>
<path d="M222.951 21.8396C221.216 21.9001 219.481 21.9304 217.746 21.8396H217.56L217.25 22.0561L217.467 22.4264C218.303 22.8922 218.426 23.0482 218.116 23.9448C217.064 27.2308 215.359 30.2047 214.027 33.5512C212.509 30.2373 211.051 27.0445 209.626 23.8843L209.472 23.4185C209.316 22.9527 209.409 22.6127 209.938 22.459C210.124 22.3961 210.341 22.3333 210.31 22.0864C210.28 21.8396 210.063 21.807 209.844 21.8396C207.8 21.9001 205.785 21.9001 203.741 21.8396C203.524 21.8396 203.275 21.8396 203.245 22.1493C203.245 22.3961 203.461 22.4264 203.648 22.4893C204.004 22.5529 204.343 22.6871 204.647 22.8838C204.95 23.0806 205.212 23.336 205.415 23.6351C205.813 24.156 206.156 24.7172 206.437 25.3095C207.863 28.16 209.318 31.0104 210.743 33.8935C211.131 34.6183 211.383 35.4074 211.489 36.2223C211.679 38.8431 211.668 41.4746 211.456 44.0937C211.395 45.1161 211.023 45.3955 210.031 45.4561L209.691 45.4863L209.411 45.8287L209.719 46.1337H210.184C211.982 46.1035 213.778 45.9474 215.576 46.1035C216.195 46.164 216.847 46.1337 217.497 46.1337C217.595 46.1481 217.695 46.1238 217.776 46.0661C217.857 46.0083 217.912 45.9216 217.93 45.824C217.963 45.5748 217.746 45.4817 217.527 45.4514C217.291 45.4261 217.053 45.416 216.815 45.4211C215.669 45.3582 215.296 45.0182 215.173 43.8725C214.986 41.702 215.112 39.5339 215.08 37.3634C215.08 36.8674 215.112 36.3714 215.143 35.8753C215.266 34.6364 215.855 33.5465 216.351 32.4683C217.714 29.5852 219.015 26.7045 220.69 23.9774C220.922 23.572 221.244 23.2246 221.631 22.9616C222.017 22.6986 222.458 22.5267 222.921 22.459C223.168 22.4264 223.387 22.3659 223.354 22.0864C223.417 21.807 223.168 21.807 222.951 21.8396" fill="#FCFDFF"/>
<path d="M22.3006 33.5512C21.8348 33.5838 21.6811 33.677 21.6811 34.173C21.7114 36.5577 21.6811 38.9122 21.6811 41.2992C21.6606 41.9421 21.702 42.5855 21.8045 43.2205C21.8977 43.6536 22.0514 44.0262 22.424 44.2428C23.6955 45.0183 25.9172 45.0486 26.8488 43.0668C27.2819 42.1678 27.4077 41.2037 27.4379 40.1534C27.4033 38.5206 26.9094 36.9306 26.0127 35.5657C25.1441 34.2033 23.968 33.4278 22.2866 33.5512" fill="#141414" fill-opacity="0.5"/>
<path d="M21.7114 27.6966V31.4763C21.7114 31.6929 21.6509 31.9094 21.928 32.0329C23.0435 32.5615 24.9345 32.0026 25.4934 30.8871C26.546 28.6864 26.3597 26.5182 25.0905 24.4735C24.5013 23.5117 23.5093 23.202 22.3938 23.3254C21.8977 23.3883 21.7114 23.542 21.7114 24.0706C21.7417 25.2467 21.7114 26.488 21.7114 27.6966" fill="#141414" fill-opacity="0.5"/>
<path d="M171.356 23.5211C170.425 23.6142 170.271 23.8005 170.271 24.7297V34.7692C170.302 36.3505 170.178 39.3244 170.364 42.2704C170.425 43.5396 170.86 44.0985 172.069 44.4688C173.001 44.7785 173.958 44.7482 174.92 44.6877C177.74 44.5014 179.878 43.1693 180.9 40.4958C182.232 37.0259 182.202 33.4302 181.179 29.8974C179.91 25.4028 176.035 23.1089 171.356 23.5211Z" fill="#292525" fill-opacity="0.5"/>
<path d="M195.434 27.6337C194.535 30.4842 193.699 33.181 192.83 35.8754C192.707 36.3109 192.986 36.1875 193.17 36.1875H197.106C198.038 36.1875 198.038 36.1875 197.758 35.3188C197.015 32.8084 196.24 30.2979 195.429 27.6337" fill="#292525" fill-opacity="0.5"/>
</svg>
