<svg width="232" height="43" viewBox="0 0 232 43" fill="none" xmlns="http://www.w3.org/2000/svg">
<g clip-path="url(#clip0_127_450)">
<path d="M21.4849 0H9.53816L9.51527 0.0415411L7.86648 3.04522H21.4849C31.5726 3.04522 39.7555 11.2263 39.7555 21.3182C39.7555 31.4102 31.5751 39.5912 21.4849 39.5912C11.3946 39.5912 3.21342 31.4093 3.21342 21.3182C3.21259 19.4092 3.51152 17.512 4.09927 15.6958H7.58758C5.11476 21.807 6.92377 28.8166 12.045 32.9676C17.1663 37.1187 24.398 37.437 29.8642 33.752C35.3303 30.0671 37.7482 23.2435 35.8218 16.9386C33.8955 10.6338 28.077 6.32712 21.4849 6.32696H6.06595L4.39512 9.37133H21.4849C26.8534 9.37242 31.5616 12.9554 32.9938 18.1298C34.426 23.3042 32.2302 28.7984 27.6265 31.5602C23.0227 34.3219 17.1421 33.6725 13.2517 29.9728C9.36136 26.2731 8.41714 20.4321 10.9437 15.6949H14.8957C12.2578 18.7918 12.1302 23.3073 14.589 26.5483C17.0477 29.7892 21.4303 30.8824 25.123 29.1758C28.8157 27.4693 30.8234 23.4228 29.9487 19.4497C29.0741 15.4766 25.5528 12.6475 21.4849 12.6497H2.59459L0.922916 15.6958C0.422528 17.528 0.168803 19.4188 0.168457 21.3182C0.168457 33.0913 9.71194 42.6364 21.4849 42.6364C33.2578 42.6364 42.8013 33.0913 42.8013 21.3182C42.8013 9.54513 33.257 0 21.4849 0ZM21.4849 15.6958C24.5898 15.6958 27.1069 18.213 27.1069 21.3182C27.1069 24.4234 24.5898 26.9407 21.4849 26.9407C18.3799 26.9407 15.8629 24.4234 15.8629 21.3182C15.8629 18.213 18.3799 15.6958 21.4849 15.6958ZM52.171 21.7684C52.171 15.8458 56.1442 11.6849 62.1027 11.6849C65.7758 11.6849 68.7742 13.2957 70.3484 15.9959L66.9008 18.4324C65.8131 16.7072 64.1644 15.8831 62.2155 15.8831C58.9942 15.8831 56.8563 18.1721 56.8563 21.7684C56.8563 25.329 58.9925 27.6528 62.2155 27.6528C64.1652 27.6528 65.8131 26.7906 66.9008 25.0662L70.3484 27.5028C68.7742 30.2394 65.7758 31.8137 62.1027 31.8137C56.1442 31.8137 52.171 27.6528 52.171 21.7684ZM70.996 21.7684C70.996 16.2205 74.9319 11.6849 81.0413 11.6849C87.1881 11.6849 91.0858 16.2205 91.0858 21.7684C91.0858 27.2789 87.1864 31.8137 81.0413 31.8137C74.9362 31.8137 70.996 27.2781 70.996 21.7684ZM86.4005 21.7684C86.4005 18.2823 84.3389 15.8458 81.0413 15.8458C77.7438 15.8458 75.6813 18.2823 75.6813 21.7684C75.6813 25.2163 77.7429 27.6528 81.0413 27.6528C84.3398 27.6528 86.4005 25.2163 86.4005 21.7684ZM121.1 12.208L115.251 31.2872H110.312L106.178 17.8305L102.007 31.2872H97.0613L91.246 12.208H95.783L99.7341 25.964L103.978 12.208H108.368L112.612 25.964L116.526 12.208H121.1ZM185.351 12.208L179.497 31.2872H174.558L170.424 17.8305L166.253 31.2872H161.317L155.5 12.2122H160.037L163.989 25.9683L168.228 12.208H172.618L176.863 25.964L180.777 12.208H185.351ZM134.784 12.1351V16.4079C134.09 16.2929 133.389 16.2303 132.685 16.2205C129.35 16.2205 127.588 17.9076 127.588 21.8803V31.2906H123.018V12.208H127.511V15.3956C128.448 13.1846 130.509 11.8723 133.133 11.8723C133.695 11.8613 134.254 11.9503 134.784 12.1351ZM153.755 12.208V29.3755C153.755 35.7855 150.195 39.3081 143.897 39.3081C140.637 39.3081 137.638 38.334 135.839 36.6469L137.9 33.3109C139.511 34.5825 141.611 35.2226 143.635 35.2226C147.158 35.2226 149.257 33.2363 149.257 29.3729V27.7274C148.17 29.8265 145.847 31.1007 143.035 31.1007C138.987 31.1007 136.439 28.5523 136.439 23.9039V12.208H141.011V22.7425C141.011 25.6665 142.211 26.9407 144.609 26.9407C147.383 26.9407 149.22 25.2544 149.22 22.4797V12.208H153.755ZM186.554 6.17521C186.554 4.52544 187.716 3.32583 189.477 3.32583C191.201 3.32583 192.36 4.52544 192.36 6.17521C192.36 7.82499 191.197 9.02374 189.477 9.02374C187.716 9.02374 186.554 7.82414 186.554 6.17521ZM187.191 12.2097H191.764V31.2889H187.191V12.2097ZM194.064 28.1776L196.538 25.2909C198.037 26.9407 200.361 27.9148 202.797 27.9148C204.971 27.9148 206.17 27.0907 206.17 25.8911C206.17 24.8789 205.42 24.2422 203.509 23.792L200.398 23.0799C196.425 22.1431 194.739 20.306 194.739 17.6821C194.739 14.1587 197.662 11.6849 202.61 11.6849C205.983 11.6849 208.794 12.8464 210.443 14.7217L208.007 17.6821C206.358 16.2578 204.484 15.583 202.496 15.583C200.36 15.583 199.311 16.3706 199.311 17.5329C199.311 18.4324 199.947 18.9945 201.972 19.4438L205.27 20.2314C209.28 21.1309 210.742 22.9671 210.742 25.591C210.742 29.3772 207.818 31.8137 202.759 31.8137C198.974 31.8137 195.789 30.3894 194.064 28.1776ZM231.049 23.1172H216.842C217.33 26.1912 219.353 27.8402 222.464 27.8402C224.6 27.8402 226.399 27.0534 227.786 25.441L230.522 28.1403C228.724 30.464 225.837 31.8137 222.314 31.8137C216.242 31.8137 212.194 27.8402 212.194 21.843C212.194 15.9204 216.094 11.6849 221.865 11.6849C227.411 11.6849 231.159 15.5457 231.159 21.3555C231.158 21.9444 231.122 22.5328 231.049 23.1172ZM216.842 20.0075H226.591C226.366 17.1955 224.641 15.6593 221.906 15.6593C219.093 15.6585 217.331 17.2701 216.842 20.0075Z" fill="#141414" fill-opacity="0.5"/>
</g>
<defs>
<clipPath id="clip0_127_450">
<rect width="231" height="42.6432" fill="white" transform="translate(0.168457)"/>
</clipPath>
</defs>
</svg>
